<?xml version="1.0" standalone="no"?><!DOCTYPE svg PUBLIC "-//W3C//DTD SVG 1.1//EN" "http://www.w3.org/Graphics/SVG/1.1/DTD/svg11.dtd"><svg t="1729501324953" class="icon" viewBox="0 0 1024 1024" version="1.1" xmlns="http://www.w3.org/2000/svg" p-id="2133" xmlns:xlink="http://www.w3.org/1999/xlink" width="200" height="200"><path d="M97 729.88h581v166H97z" fill="#386BF3" p-id="2134"></path><path d="M595.69 377.12L678 729.88H97l82.31-352.76z" fill="#C3D2FB" p-id="2135"></path><path d="M595 812.88m-41.5 0a41.5 41.5 0 1 0 83 0 41.5 41.5 0 1 0-83 0Z" fill="#3D4265" p-id="2136"></path><path d="M470.5 812.88m-41.5 0a41.5 41.5 0 1 0 83 0 41.5 41.5 0 1 0-83 0Z" fill="#3D4265" p-id="2137"></path><path d="M346 480.88h581v166H346z" fill="#386BF3" p-id="2138"></path><path d="M844.69 128.12L927 480.88H346l82.31-352.76z" fill="#C3D2FB" p-id="2139"></path><path d="M844 563.88m-41.5 0a41.5 41.5 0 1 0 83 0 41.5 41.5 0 1 0-83 0Z" fill="#3D4265" p-id="2140"></path><path d="M719.5 563.88m-41.5 0a41.5 41.5 0 1 0 83 0 41.5 41.5 0 1 0-83 0Z" fill="#3D4265" p-id="2141"></path></svg>